REM DIRINDEX 1
REM DIRNAME folder01
TITLE ""
FILE "Disk2Track39.mp3" MP3
  TRACK 01 AUDIO
    TITLE "1:cjc069_0701"
    INDEX 01 00:00:00
  TRACK 02 AUDIO
    TITLE "1:cjc069_0702"
    INDEX 01 00:05:22
  TRACK 03 AUDIO
    TITLE "1:cjc069_0703"
    INDEX 01 00:14:00
  TRACK 04 AUDIO
    TITLE "1:cjc069_0704"
    INDEX 01 00:18:42
  TRACK 05 AUDIO
    TITLE "1:cjc069_0705"
    INDEX 01 00:27:49
  TRACK 06 AUDIO
    TITLE "0:"
    INDEX 01 00:37:69
